<?xml version="1.0" encoding="utf-8"?>
<!-- Generator: Adobe Illustrator 25.1.0, SVG Export Plug-In . SVG Version: 6.00 Build 0)  -->
<svg version="1.1" xmlns="http://www.w3.org/2000/svg" xmlns:xlink="http://www.w3.org/1999/xlink" x="0px" y="0px"
	 viewBox="0 0 1200 800" style="enable-background:new 0 0 1200 800;" xml:space="preserve">
<style type="text/css">
	.st0{fill:none;}
	.st1{fill:#BFA880;}
	.st2{fill:#2B2B2B;}
	.st3{fill:url(#New_Pattern_5);}
	.st4{opacity:0.4;fill:url(#SVGID_1_);}
</style>
<pattern  x="-1627.07" y="-3874.82" width="874.17" height="1122" patternUnits="userSpaceOnUse" id="New_Pattern_5" viewBox="0 -1122 874.17 1122" style="overflow:visible;">
	<g>
		<rect y="-1122" class="st0" width="874.17" height="1122"/>
		<g>
			<polygon class="st1" points="590.29,-403.35 590.29,-328.67 607.07,-319.09 607.19,-393.69 			"/>
			<polygon class="st1" points="614.69,-389.41 614.57,-314.8 620.18,-311.59 631.42,-318.02 631.41,-379.85 			"/>
			<polygon class="st1" points="590.29,-300.89 595.87,-297.7 612.67,-307.3 590.29,-320.09 			"/>
			<polygon class="st1" points="638.92,-375.56 638.92,-322.3 655.65,-331.86 655.65,-366 			"/>
			<polygon class="st1" points="857.69,-402.45 874.17,-411.86 874.17,-486.54 857.57,-477.06 			"/>
			<polygon class="st1" points="663.15,-361.71 663.15,-331.95 680.12,-322.26 680.12,-352.02 			"/>
			<polygon class="st1" points="687.62,-347.67 687.62,-317.97 704.27,-308.46 704.27,-338.21 			"/>
			<polygon class="st1" points="844.58,-394.96 850.19,-398.16 850.07,-472.77 833.35,-463.22 833.35,-401.38 			"/>
			<polygon class="st1" points="728.58,-324.33 711.78,-333.93 711.78,-304.17 728.58,-294.57 			"/>
			<polygon class="st1" points="868.9,-381.07 874.17,-384.08 874.17,-403.28 852.09,-390.67 			"/>
			<polygon class="st1" points="825.84,-405.67 825.85,-458.93 809.12,-449.37 809.12,-415.22 			"/>
			<polygon class="st1" points="874.17,-31.08 857.57,-21.6 857.61,0 874.17,0 			"/>
			<polygon class="st1" points="833.35,-7.76 833.35,0 850.1,0 850.07,-17.31 			"/>
			<polygon class="st1" points="819.78,0 825.84,0 825.85,-3.47 			"/>
			<polygon class="st1" points="590.29,-1069.89 590.29,-995.39 607.07,-985.8 607.19,-1060.23 			"/>
			<polygon class="st1" points="614.69,-1055.95 614.57,-981.51 631.42,-971.88 631.41,-1046.39 			"/>
			<polygon class="st1" points="590.3,-916.32 603.34,-923.78 590.29,-931.23 			"/>
			<polygon class="st1" points="590.29,-939.81 610.85,-928.07 627.66,-937.67 590.29,-959.02 			"/>
			<polygon class="st1" points="590.29,-967.6 635.16,-941.96 651.97,-951.56 590.29,-986.81 			"/>
			<polygon class="st1" points="638.92,-1042.1 638.92,-967.59 655.65,-958.04 655.65,-1032.54 			"/>
			<polygon class="st1" points="874.17,-1078.58 874.17,-1122 857.61,-1122 857.69,-1069.16 			"/>
			<polygon class="st1" points="663.15,-1028.25 663.15,-953.75 680.12,-944.05 680.12,-1018.56 			"/>
			<polygon class="st1" points="687.62,-1014.27 687.62,-939.76 704.27,-930.25 704.27,-1004.75 			"/>
			<polygon class="st1" points="850.19,-1064.87 850.1,-1122 833.35,-1122 833.35,-1055.25 			"/>
			<polygon class="st1" points="711.78,-1000.47 711.78,-925.96 728.57,-916.37 728.57,-990.87 			"/>
			<polygon class="st1" points="874.17,-999.84 874.17,-1014.43 861.41,-1007.13 			"/>
			<polygon class="st1" points="853.91,-1011.42 874.17,-1023 874.17,-1042.21 837.1,-1021.03 			"/>
			<polygon class="st1" points="829.59,-1025.32 874.17,-1050.79 874.17,-1070 812.79,-1034.92 			"/>
			<polygon class="st1" points="809.12,-1041.4 825.84,-1050.96 825.84,-1122 819.78,-1122 809.12,-1115.91 			"/>
			<polygon class="st1" points="801.61,-1037.12 801.61,-1111.62 784.65,-1101.92 784.65,-1027.42 			"/>
			<polygon class="st1" points="760.49,-1088 760.49,-1013.62 777.14,-1023.13 777.14,-1097.47 			"/>
			<path class="st1" d="M711.86-1062.45c0,0.01,0,0.01,0,0.02c0,0,0,0.01,0,0.01l0.01,53.42l16.8,9.6v-74.74l-16.81-9.6
				L711.86-1062.45z"/>
			<polygon class="st1" points="752.98,-1083.73 736.17,-1074.17 736.17,-999.73 752.98,-1009.33 			"/>
			<polygon class="st1" points="590.29,-1097.68 590.3,-1078.47 704.36,-1013.29 704.36,-1032.49 			"/>
			<polygon class="st1" points="704.36,-1041.07 704.36,-1060.28 596.36,-1122 590.29,-1122 590.29,-1106.26 			"/>
			<path class="st1" d="M704.35-1088.03l-46.83-26.76c-0.15-0.09-0.3-0.19-0.44-0.29l-12.11-6.92h-33.61l92.99,53.14L704.35-1088.03
				z"/>
			<polygon class="st1" points="680.12,-1110.45 680.12,-1122 663.15,-1122 663.15,-1120.15 			"/>
			<polygon class="st1" points="704.27,-1096.65 704.27,-1122 687.62,-1122 687.62,-1106.17 			"/>
			<polygon class="st1" points="752.9,-1092.36 752.9,-1122 736.1,-1122 736.1,-1082.76 			"/>
			<polygon class="st1" points="728.59,-1082.76 728.59,-1122 711.78,-1122 711.78,-1092.36 			"/>
			<polygon class="st1" points="760.4,-1096.65 804.77,-1122 771.16,-1122 760.4,-1115.86 			"/>
			<path class="st1" d="M607.19-896.21c0-1.33,0.72-2.55,1.88-3.22l48.7-27.68c1.16-0.66,2.59-0.66,3.75,0.01l46.59,26.77
				c6.72-3.84,12.68-7.25,16.76-9.58l-65.4-37.37l-69.19,39.54v79.07l16.78,9.59L607.19-896.21z"/>
			<path class="st1" d="M631.4-882.09c0-1.33,0.72-2.55,1.88-3.22l24.32-13.89c1.16-0.66,2.59-0.66,3.75,0l22.39,12.8
				c5.47-3.13,11.28-6.45,16.87-9.64l-40.99-23.55l-44.94,25.54l-0.13,79.27l16.85,9.63L631.4-882.09z"/>
			<polygon class="st1" points="590.29,-749.78 603.17,-757.14 590.29,-764.51 			"/>
			<polygon class="st1" points="590.29,-773.09 610.68,-761.43 627.49,-771.04 590.28,-792.3 			"/>
			<polygon class="st1" points="590.28,-800.88 634.99,-775.32 651.8,-784.93 590.28,-820.08 			"/>
			<path class="st1" d="M655.64-868.2c0-1.36,0.75-2.59,1.92-3.24c0.55-0.31,8.36-4.78,18.68-10.68l-16.76-9.58l-20.57,11.75
				l0.01,79.08l16.72,9.55V-868.2z"/>
			<path class="st1" d="M607.19-729.68c0-1.33,0.72-2.55,1.88-3.22l48.7-27.68c1.16-0.66,2.59-0.66,3.75,0.01l46.59,26.77
				c6.61-3.78,12.48-7.13,16.54-9.45l-65.39-37.37l-68.98,39.42v79.07l16.78,9.59L607.19-729.68z"/>
			<path class="st1" d="M631.41-715.56c0-1.33,0.72-2.55,1.88-3.22l24.32-13.89c1.16-0.66,2.59-0.66,3.75,0l22.39,12.8
				c5.47-3.13,11.28-6.45,16.87-9.64l-40.99-23.55l-44.94,25.54l-0.13,79.27l16.85,9.63L631.41-715.56z"/>
			<polygon class="st1" points="590.3,-582.95 603.44,-590.46 590.29,-597.97 			"/>
			<polygon class="st1" points="590.29,-606.55 610.95,-594.75 627.76,-604.35 590.29,-625.76 			"/>
			<polygon class="st1" points="590.29,-634.34 635.26,-608.64 652.07,-618.24 590.29,-653.55 			"/>
			<path class="st1" d="M655.65-701.66c0-1.36,0.75-2.59,1.92-3.24c0.55-0.31,8.36-4.78,18.68-10.68l-16.76-9.58l-20.57,11.75
				l0.01,79.08l16.72,9.56V-701.66z"/>
			<polygon class="st1" points="801.61,-415.31 801.61,-445.08 784.65,-435.38 784.65,-405.62 			"/>
			<path class="st1" d="M607.19-562.84c0-1.33,0.72-2.55,1.88-3.22l48.7-27.68c1.16-0.66,2.59-0.66,3.75,0.01l46.59,26.77
				c6.72-3.84,12.68-7.25,16.76-9.58l-65.4-37.37l-69.19,39.54v79.07l16.78,9.59L607.19-562.84z"/>
			<polygon class="st1" points="760.49,-421.46 760.49,-391.82 777.14,-401.33 777.14,-430.93 			"/>
			<path class="st1" d="M728.58-371.44c0-0.26,0.03-0.51,0.09-0.76v-35.4l-16.81-9.6l0,21.29c0,0.01,0,0.01,0,0.02
				c0,0,0,0.01,0,0.01l0.01,53.42l16.71,9.55V-371.44z"/>
			<path class="st1" d="M631.41-548.72c0-1.33,0.72-2.55,1.88-3.22l24.32-13.89c1.16-0.66,2.59-0.66,3.75,0l22.39,12.8
				c5.47-3.13,11.28-6.45,16.87-9.64l-40.99-23.55l-44.94,25.54l-0.13,79.27l16.85,9.63L631.41-548.72z"/>
			<polygon class="st1" points="752.98,-417.19 736.17,-407.63 736.17,-377.93 752.98,-387.53 			"/>
			<polygon class="st1" points="704.36,-365.95 590.29,-431.14 590.3,-411.93 704.36,-346.75 			"/>
			<polygon class="st1" points="704.36,-374.53 704.36,-393.74 590.29,-458.93 590.29,-439.72 			"/>
			<path class="st1" d="M704.35-402.32l0-19.16l-46.83-26.76c-0.15-0.09-0.3-0.19-0.44-0.29l-66.8-38.17l0,19.21L704.35-402.32z"/>
			<path class="st1" d="M655.65-534.83c0-1.36,0.75-2.59,1.92-3.24c0.55-0.31,8.36-4.78,18.68-10.68l-16.76-9.58l-20.57,11.75
				l0.01,79.08l16.72,9.56V-534.83z"/>
			<path class="st1" d="M607.19-274.41c0-1.33,0.72-2.55,1.88-3.22l48.7-27.68c1.16-0.66,2.59-0.66,3.75,0.01l46.59,26.77
				c6.72-3.84,12.68-7.25,16.76-9.58l-65.4-37.37l-69.19,39.54v79.07l16.78,9.59L607.19-274.41z"/>
			<path class="st1" d="M631.41-260.29c0-1.33,0.72-2.55,1.88-3.22l24.32-13.89c1.16-0.66,2.59-0.66,3.75,0l22.39,12.8
				c5.47-3.13,11.28-6.45,16.87-9.64l-40.99-23.55l-44.94,25.54l-0.13,79.27l16.85,9.63L631.41-260.29z"/>
			<polygon class="st1" points="590.3,-127.49 603.61,-135.1 590.29,-142.71 			"/>
			<polygon class="st1" points="590.29,-151.29 611.12,-139.39 627.93,-148.99 590.29,-170.5 			"/>
			<polygon class="st1" points="590.29,-179.08 635.43,-153.28 652.24,-162.88 590.29,-198.28 			"/>
			<path class="st1" d="M655.65-246.4c0-1.36,0.75-2.59,1.92-3.24c0.55-0.31,8.36-4.78,18.68-10.68l-16.76-9.58l-20.57,11.75
				l0.01,79.08l16.72,9.56V-246.4z"/>
			<path class="st1" d="M659.48-158.44l-69.19,39.54v79.07l16.78,9.59l0.13-77.14c0-1.33,0.72-2.55,1.88-3.22l48.7-27.68
				c1.16-0.66,2.59-0.66,3.75,0.01l46.59,26.77c6.72-3.84,12.68-7.25,16.76-9.58L659.48-158.44z"/>
			<path class="st1" d="M614.7-105.22l-0.13,79.27l16.85,9.63l-0.01-76.93c0-1.33,0.72-2.55,1.88-3.22l24.32-13.89
				c1.16-0.66,2.59-0.66,3.75,0l22.39,12.8c5.47-3.13,11.28-6.44,16.87-9.64l-40.99-23.55L614.7-105.22z"/>
			<polygon class="st1" points="590.29,0 596.36,0 590.29,-3.47 			"/>
			<polygon class="st1" points="590.29,-12.05 611.37,0 644.98,0 590.29,-31.25 			"/>
			<path class="st1" d="M638.92-91.12l0.01,79.08l16.72,9.55v-76.88c0-1.36,0.75-2.59,1.92-3.24c0.55-0.31,8.36-4.78,18.68-10.68
				l-16.76-9.58L638.92-91.12z"/>
			<polygon class="st1" points="857.69,-113.6 874.17,-123.02 874.17,-198.11 857.57,-188.63 			"/>
			<path class="st1" d="M680.12-65.25c0-0.01,0-0.01,0-0.02c0-0.22,0.03-0.43,0.07-0.64c0.01-0.06,0.02-0.11,0.03-0.17
				c0.05-0.21,0.11-0.41,0.19-0.6c0.01-0.03,0.03-0.05,0.04-0.08c0.08-0.17,0.17-0.33,0.27-0.49c0.03-0.05,0.06-0.09,0.09-0.14
				c0.12-0.17,0.25-0.33,0.4-0.48c0.01-0.01,0.02-0.02,0.03-0.03c0.14-0.14,0.3-0.26,0.46-0.38c0.05-0.03,0.1-0.07,0.15-0.1
				c0.04-0.03,0.09-0.06,0.13-0.09l70.95-40.83l-0.03-19.52l-17.63,10.08c-0.29,0.36-0.64,0.67-1.06,0.91l-71.06,40.61V0h16.97
				V-65.25z"/>
			<polygon class="st1" points="687.62,-58.83 687.62,0 704.27,0 704.27,-49.36 			"/>
			<polygon class="st1" points="850.19,-109.32 850.07,-184.34 833.35,-174.79 833.35,-99.69 			"/>
			<path class="st1" d="M752.9-23.79c0-0.01,0-0.01,0-0.02l0-25.62l-22.44-12.82c-1.16-0.66-1.88-1.89-1.88-3.22
				c0-1.33,0.72-2.55,1.88-3.22l46.75-26.72v-47.3l-16.82,9.61l0.04,25.94c0,1.33-0.71,2.55-1.87,3.22l-67.2,38.67l18.24,10.37
				c0.2,0.09,0.39,0.2,0.56,0.32l24.04,13.67c1.17,0.66,1.88,1.89,1.88,3.22V0h16.75h0.06l0-23.78
				C752.9-23.78,752.9-23.79,752.9-23.79z"/>
			<polygon class="st1" points="711.78,-45.09 711.78,0 728.58,0 728.59,0 728.59,-35.54 			"/>
			<path class="st1" d="M782.85-90.04l-43,24.57l16.81,9.6l44.88-25.64v-75.09l-16.81,9.6v53.74
				C784.72-91.93,784.01-90.71,782.85-90.04z"/>
			<polygon class="st1" points="874.17,-39.66 874.17,-58.87 771.16,0 777.22,0 784.72,0 791.28,0 804.77,0 			"/>
			<polygon class="st1" points="760.41,-21.65 760.41,-2.44 874.17,-67.45 874.17,-86.66 			"/>
			<polygon class="st1" points="760.41,-49.43 760.41,-30.22 874.17,-95.24 874.17,-114.44 			"/>
			<polygon class="st1" points="825.84,-95.4 825.85,-170.5 809.04,-160.89 809.04,-85.8 			"/>
			<path class="st1" d="M805.28-1030.63l-69.2,39.54v81.22c0,1.33-0.72,2.55-1.88,3.22l-71.06,40.61v79.07l16.97,9.69v-76.8
				c0-0.01,0-0.01,0-0.02c0-0.22,0.03-0.43,0.07-0.64c0.01-0.06,0.02-0.11,0.03-0.17c0.05-0.21,0.11-0.41,0.19-0.6
				c0.01-0.03,0.03-0.05,0.04-0.08c0.08-0.17,0.17-0.33,0.27-0.49c0.03-0.05,0.06-0.09,0.09-0.14c0.12-0.17,0.25-0.33,0.4-0.48
				c0.01-0.01,0.02-0.02,0.03-0.03c0.14-0.14,0.3-0.26,0.46-0.38c0.05-0.03,0.1-0.07,0.15-0.1c0.04-0.03,0.09-0.06,0.13-0.09
				l70.95-40.83l-0.12-81.22c0-1.33,0.71-2.55,1.87-3.22l48.56-27.9c1.16-0.67,2.59-0.67,3.75-0.01l48.7,27.68
				c1.16,0.66,1.88,1.89,1.88,3.22l0.13,77.14l16.48-9.42v-79.41L805.28-1030.63z"/>
			<polygon class="st1" points="704.27,-838.19 687.62,-847.66 687.62,-773 704.27,-763.48 			"/>
			<path class="st1" d="M850.06-977.42l-44.94-25.54l-44.82,25.75l0.12,81.22c0,1.33-0.71,2.55-1.87,3.22l-67.2,38.67l18.24,10.37
				c0.2,0.09,0.39,0.2,0.56,0.32l22,12.51l16.81-9.61l-18.52-10.58c-1.16-0.66-1.88-1.89-1.88-3.22c0-1.33,0.72-2.55,1.88-3.22
				l46.75-26.72v-81.22c0-0.13,0.01-0.26,0.03-0.38c0-0.03,0-0.06,0.01-0.09c0.03-0.21,0.08-0.42,0.14-0.62
				c0.02-0.05,0.04-0.11,0.05-0.16c0.15-0.42,0.38-0.8,0.67-1.14c0.04-0.04,0.07-0.08,0.11-0.12c0.14-0.15,0.3-0.3,0.47-0.43
				c0.02-0.02,0.05-0.03,0.07-0.05c0.11-0.08,0.21-0.15,0.33-0.22l24.31-13.89c1.16-0.66,2.59-0.66,3.75,0l24.32,13.89
				c1.16,0.66,1.88,1.89,1.88,3.22l-0.01,76.93l16.85-9.63L850.06-977.42z"/>
			<polygon class="st1" points="728.58,-824.37 711.77,-833.92 711.77,-759.19 728.58,-749.59 			"/>
			<path class="st1" d="M801.52-949.42l-16.81-9.6v76.93c0,1.33-0.72,2.55-1.88,3.22l-43,24.57l16.64,9.51l45.04-25.73V-949.42z"/>
			<polygon class="st1" points="874.17,-833.31 874.17,-847.7 861.58,-840.51 			"/>
			<polygon class="st1" points="854.07,-844.8 874.17,-856.28 874.17,-875.49 837.27,-854.4 			"/>
			<polygon class="st1" points="829.76,-858.69 874.17,-884.07 874.17,-903.28 812.96,-868.29 			"/>
			<path class="st1" d="M825.84-963.31l-20.57-11.75l-16.8,9.6l18.69,10.68c1.16,0.66,1.88,1.89,1.88,3.22v76.93l16.8-9.6
				L825.84-963.31z"/>
			<path class="st1" d="M805.29-864.1l-69.2,39.54v81.22c0,1.33-0.72,2.55-1.88,3.22l-71.06,40.61v79.07l16.97,9.69v-76.8
				c0-0.01,0-0.01,0-0.02c0-0.22,0.03-0.43,0.07-0.64c0.01-0.06,0.02-0.11,0.03-0.17c0.05-0.21,0.11-0.41,0.19-0.6
				c0.01-0.03,0.03-0.05,0.04-0.08c0.08-0.17,0.17-0.33,0.27-0.49c0.03-0.05,0.06-0.09,0.09-0.14c0.12-0.17,0.25-0.34,0.4-0.48
				c0.01-0.01,0.02-0.02,0.03-0.03c0.14-0.14,0.3-0.26,0.46-0.38c0.05-0.03,0.1-0.07,0.15-0.1c0.04-0.03,0.09-0.06,0.13-0.09
				l70.95-40.83l-0.12-81.22c0-1.33,0.71-2.55,1.87-3.22l48.56-27.9c1.16-0.67,2.59-0.67,3.75-0.01l48.7,27.68
				c1.16,0.66,1.88,1.89,1.88,3.22l0.13,77.14l16.48-9.42v-79.42L805.29-864.1z"/>
			<polygon class="st1" points="704.27,-671.66 687.62,-681.13 687.62,-606.46 704.27,-596.95 			"/>
			<path class="st1" d="M850.07-810.88l-44.94-25.54l-44.82,25.75l0.12,81.22c0,1.33-0.71,2.55-1.87,3.22l-67.2,38.67l18.24,10.37
				c0.2,0.09,0.39,0.2,0.56,0.32l22.26,12.66l16.81-9.61l-18.78-10.73c-1.16-0.66-1.88-1.89-1.88-3.22s0.72-2.55,1.88-3.22
				l46.75-26.72v-81.22c0-0.13,0.01-0.26,0.03-0.39c0-0.03,0-0.06,0.01-0.09c0.03-0.21,0.08-0.42,0.14-0.62
				c0.02-0.05,0.04-0.1,0.05-0.16c0.15-0.42,0.38-0.8,0.67-1.14c0.04-0.04,0.07-0.08,0.11-0.12c0.14-0.15,0.3-0.3,0.47-0.43
				c0.02-0.02,0.05-0.03,0.07-0.05c0.11-0.08,0.21-0.15,0.33-0.22l24.31-13.89c1.16-0.66,2.59-0.66,3.75,0l24.32,13.89
				c1.16,0.66,1.88,1.89,1.88,3.22l-0.01,76.93l16.85-9.63L850.07-810.88z"/>
			<polygon class="st1" points="728.58,-657.84 711.78,-667.39 711.78,-592.66 728.58,-583.06 			"/>
			<path class="st1" d="M801.53-782.88l-16.81-9.6v76.93c0,1.33-0.72,2.55-1.88,3.22l-43,24.57l16.81,9.6l44.88-25.64V-782.88z"/>
			<polygon class="st1" points="874.17,-666.48 874.17,-681.17 861.32,-673.82 			"/>
			<polygon class="st1" points="853.81,-678.11 874.17,-689.74 874.17,-708.95 837.01,-687.72 			"/>
			<polygon class="st1" points="829.5,-692.01 874.17,-717.53 874.17,-736.74 812.7,-701.61 			"/>
			<path class="st1" d="M825.85-796.77l-20.57-11.75l-16.8,9.6l18.69,10.68c1.16,0.66,1.88,1.89,1.88,3.22v76.93l16.8-9.6
				L825.85-796.77z"/>
			<path class="st1" d="M805.29-697.26l-69.2,39.54v81.22c0,1.33-0.72,2.55-1.88,3.22l-71.06,40.61v79.07l16.97,9.69v-76.8
				c0-0.01,0-0.01,0-0.02c0-0.22,0.03-0.43,0.07-0.64c0.01-0.06,0.02-0.11,0.03-0.17c0.05-0.21,0.11-0.41,0.19-0.6
				c0.01-0.03,0.03-0.05,0.04-0.08c0.08-0.17,0.17-0.33,0.27-0.49c0.03-0.05,0.06-0.09,0.09-0.14c0.12-0.17,0.25-0.34,0.4-0.48
				c0.01-0.01,0.02-0.02,0.03-0.03c0.14-0.14,0.3-0.26,0.46-0.38c0.05-0.03,0.1-0.07,0.15-0.1c0.04-0.03,0.09-0.06,0.13-0.09
				l70.95-40.83l-0.12-81.22c0-1.33,0.71-2.55,1.87-3.22l48.56-27.9c1.16-0.67,2.59-0.67,3.75-0.01l48.7,27.68
				c1.16,0.66,1.88,1.89,1.88,3.22l0.13,77.14l16.48-9.42v-79.42L805.29-697.26z"/>
			<polygon class="st1" points="704.27,-504.82 687.62,-514.29 687.62,-439.63 704.27,-430.11 			"/>
			<path class="st1" d="M850.07-644.05l-44.94-25.54l-44.82,25.75l0.12,81.22c0,1.33-0.71,2.55-1.87,3.22l-67.2,38.67l18.24,10.37
				c0.2,0.09,0.38,0.19,0.56,0.32l24.04,13.67c1.17,0.66,1.88,1.89,1.88,3.22v76.93l16.8-9.6l0.01-53.42c0,0,0-0.01,0-0.01
				c0-0.01,0-0.01,0-0.02l0-25.62l-22.44-12.82c-1.16-0.66-1.88-1.89-1.88-3.22c0-1.33,0.72-2.55,1.88-3.22l46.75-26.72v-81.22
				c0-0.13,0.01-0.26,0.03-0.39c0-0.03,0-0.06,0.01-0.09c0.03-0.21,0.08-0.42,0.14-0.62c0.02-0.05,0.04-0.11,0.05-0.16
				c0.15-0.42,0.38-0.8,0.67-1.14c0.04-0.04,0.07-0.08,0.11-0.12c0.14-0.15,0.3-0.3,0.47-0.43c0.02-0.02,0.05-0.03,0.07-0.05
				c0.11-0.08,0.21-0.15,0.33-0.22l24.31-13.89c1.16-0.66,2.59-0.66,3.75,0l24.32,13.89c1.16,0.66,1.88,1.89,1.88,3.22l-0.01,76.93
				l16.85-9.63L850.07-644.05z"/>
			<polygon class="st1" points="728.59,-491 711.78,-500.55 711.78,-425.82 728.59,-416.22 			"/>
			<path class="st1" d="M801.53-616.05l-16.81-9.6v76.93c0,1.33-0.72,2.55-1.88,3.22l-43,24.57l16.81,9.6l44.88-25.64V-616.05z"/>
			<polygon class="st1" points="760.4,-449.32 760.4,-430.11 874.17,-495.12 874.17,-514.33 			"/>
			<polygon class="st1" points="760.41,-477.11 760.41,-457.9 874.17,-522.91 874.17,-542.12 			"/>
			<polygon class="st1" points="760.41,-504.89 760.41,-485.69 874.17,-550.7 874.17,-569.9 			"/>
			<path class="st1" d="M825.85-629.94l-20.57-11.75l-16.8,9.6l18.69,10.68c1.16,0.66,1.88,1.89,1.88,3.22v76.93l16.8-9.6
				L825.85-629.94z"/>
			<path class="st1" d="M805.29-408.83l-69.2,39.54v81.22c0,1.33-0.72,2.55-1.88,3.22l-71.06,40.61v79.07l16.97,9.69v-76.8
				c0-0.01,0-0.01,0-0.02c0-0.22,0.03-0.43,0.07-0.64c0.01-0.06,0.02-0.11,0.03-0.17c0.05-0.21,0.11-0.41,0.19-0.6
				c0.01-0.03,0.03-0.05,0.04-0.08c0.08-0.17,0.17-0.33,0.27-0.49c0.03-0.05,0.06-0.09,0.09-0.14c0.12-0.17,0.25-0.34,0.4-0.48
				c0.01-0.01,0.02-0.02,0.03-0.03c0.14-0.14,0.3-0.26,0.46-0.38c0.05-0.03,0.1-0.07,0.15-0.1c0.04-0.03,0.09-0.06,0.13-0.09
				l70.95-40.83l-0.12-81.22c0-1.33,0.71-2.55,1.87-3.22l48.56-27.9c1.16-0.67,2.59-0.67,3.75-0.01l48.7,27.68
				c1.16,0.66,1.88,1.89,1.88,3.22l0.13,77.14l16.48-9.42v-79.42L805.29-408.83z"/>
			<polygon class="st1" points="704.27,-216.39 687.62,-225.86 687.62,-151.2 704.27,-141.68 			"/>
			<path class="st1" d="M850.07-355.62l-44.94-25.54l-44.82,25.75l0.12,81.22c0,1.33-0.71,2.55-1.87,3.22l-67.2,38.67l18.24,10.37
				c0.2,0.09,0.38,0.19,0.56,0.32l24.04,13.67c1.17,0.66,1.88,1.89,1.88,3.22v76.93l16.8-9.6l0.01-53.42c0,0,0-0.01,0-0.01
				c0-0.01,0-0.01,0-0.02l0-25.63l-22.44-12.82c-1.16-0.66-1.88-1.89-1.88-3.22c0-1.33,0.72-2.55,1.88-3.22l46.75-26.72v-81.22
				c0-0.13,0.01-0.26,0.03-0.39c0-0.03,0-0.06,0.01-0.09c0.03-0.21,0.08-0.42,0.14-0.62c0.02-0.05,0.04-0.1,0.05-0.16
				c0.15-0.42,0.38-0.8,0.67-1.14c0.04-0.04,0.07-0.08,0.11-0.12c0.14-0.15,0.3-0.3,0.47-0.43c0.02-0.02,0.05-0.03,0.07-0.05
				c0.11-0.08,0.21-0.15,0.33-0.22l24.31-13.89c1.16-0.66,2.59-0.66,3.75,0l24.32,13.89c1.16,0.66,1.88,1.89,1.88,3.22l-0.01,76.93
				l16.85-9.63L850.07-355.62z"/>
			<polygon class="st1" points="728.59,-202.57 711.78,-212.13 711.78,-137.39 728.59,-127.79 			"/>
			<path class="st1" d="M801.53-327.62l-16.81-9.6v76.93c0,1.33-0.72,2.55-1.88,3.22l-43,24.57l16.81,9.6l44.88-25.64V-327.62z"/>
			<polygon class="st1" points="760.4,-160.89 760.4,-141.68 874.17,-206.69 874.17,-225.9 			"/>
			<polygon class="st1" points="760.41,-188.68 760.41,-169.47 874.17,-234.48 874.17,-253.69 			"/>
			<polygon class="st1" points="760.41,-216.47 760.41,-197.26 874.17,-262.27 874.17,-281.47 			"/>
			<path class="st1" d="M825.85-341.51l-20.57-11.75l-16.8,9.6l18.69,10.68c1.16,0.66,1.88,1.89,1.88,3.22v76.93l16.8-9.6
				L825.85-341.51z"/>
		</g>
		<g>
			<polygon class="st1" points="298.9,-403.35 298.9,-328.67 315.68,-319.09 315.8,-393.69 			"/>
			<polygon class="st1" points="323.3,-389.41 323.18,-314.8 328.79,-311.59 340.03,-318.02 340.02,-379.85 			"/>
			<polygon class="st1" points="298.9,-300.89 304.48,-297.7 321.28,-307.3 298.9,-320.09 			"/>
			<polygon class="st1" points="347.53,-375.56 347.53,-322.3 364.26,-331.86 364.26,-366 			"/>
			<polygon class="st1" points="566.3,-402.45 582.78,-411.86 582.78,-486.54 566.18,-477.06 			"/>
			<polygon class="st1" points="371.76,-361.71 371.76,-331.95 388.73,-322.26 388.73,-352.02 			"/>
			<polygon class="st1" points="396.23,-347.67 396.23,-317.97 412.88,-308.46 412.88,-338.21 			"/>
			<polygon class="st1" points="553.19,-394.96 558.8,-398.16 558.68,-472.77 541.96,-463.22 541.96,-401.38 			"/>
			<polygon class="st1" points="437.19,-324.33 420.39,-333.93 420.39,-304.17 437.19,-294.57 			"/>
			<polygon class="st1" points="577.51,-381.07 582.78,-384.08 582.78,-403.28 560.7,-390.67 			"/>
			<polygon class="st1" points="534.45,-405.67 534.46,-458.93 517.73,-449.37 517.73,-415.22 			"/>
			<polygon class="st1" points="582.78,-31.08 566.18,-21.6 566.22,0 582.78,0 			"/>
			<polygon class="st1" points="541.96,-7.76 541.96,0 558.71,0 558.68,-17.31 			"/>
			<polygon class="st1" points="528.39,0 534.45,0 534.46,-3.47 			"/>
			<polygon class="st1" points="298.9,-1069.89 298.9,-995.39 315.68,-985.8 315.8,-1060.23 			"/>
			<polygon class="st1" points="323.3,-1055.95 323.18,-981.51 340.03,-971.88 340.02,-1046.39 			"/>
			<polygon class="st1" points="298.9,-916.32 311.95,-923.78 298.9,-931.23 			"/>
			<polygon class="st1" points="298.9,-939.81 319.46,-928.07 336.26,-937.67 298.9,-959.02 			"/>
			<polygon class="st1" points="298.9,-967.6 343.77,-941.96 360.58,-951.56 298.9,-986.81 			"/>
			<polygon class="st1" points="347.53,-1042.1 347.53,-967.59 364.26,-958.04 364.26,-1032.54 			"/>
			<polygon class="st1" points="582.78,-1078.58 582.78,-1122 566.22,-1122 566.3,-1069.16 			"/>
			<polygon class="st1" points="371.76,-1028.25 371.76,-953.75 388.73,-944.05 388.73,-1018.56 			"/>
			<polygon class="st1" points="396.23,-1014.27 396.23,-939.76 412.88,-930.25 412.88,-1004.75 			"/>
			<polygon class="st1" points="558.8,-1064.87 558.71,-1122 541.96,-1122 541.96,-1055.25 			"/>
			<polygon class="st1" points="420.39,-1000.47 420.39,-925.96 437.18,-916.37 437.18,-990.87 			"/>
			<polygon class="st1" points="582.78,-999.84 582.78,-1014.43 570.02,-1007.13 			"/>
			<polygon class="st1" points="562.52,-1011.42 582.78,-1023 582.78,-1042.21 545.71,-1021.03 			"/>
			<polygon class="st1" points="538.2,-1025.32 582.78,-1050.79 582.78,-1070 521.4,-1034.92 			"/>
			<polygon class="st1" points="517.73,-1041.4 534.45,-1050.96 534.45,-1122 528.39,-1122 517.73,-1115.91 			"/>
			<polygon class="st1" points="510.22,-1037.12 510.22,-1111.62 493.25,-1101.92 493.25,-1027.42 			"/>
			<polygon class="st1" points="469.1,-1088 469.1,-1013.62 485.75,-1023.13 485.75,-1097.47 			"/>
			<path class="st1" d="M420.47-1062.45c0,0.01,0,0.01,0,0.02c0,0,0,0.01,0,0.01l0.01,53.42l16.8,9.6v-74.74l-16.81-9.6
				L420.47-1062.45z"/>
			<polygon class="st1" points="461.59,-1083.73 444.78,-1074.17 444.78,-999.73 461.59,-1009.33 			"/>
			<polygon class="st1" points="298.9,-1097.68 298.91,-1078.47 412.97,-1013.29 412.97,-1032.49 			"/>
			<polygon class="st1" points="412.97,-1041.07 412.97,-1060.28 304.96,-1122 298.9,-1122 298.9,-1106.26 			"/>
			<path class="st1" d="M412.96-1088.03l-46.83-26.76c-0.15-0.09-0.3-0.19-0.44-0.29l-12.11-6.92h-33.61l92.99,53.14L412.96-1088.03
				z"/>
			<polygon class="st1" points="388.73,-1110.45 388.73,-1122 371.76,-1122 371.76,-1120.15 			"/>
			<polygon class="st1" points="412.88,-1096.65 412.88,-1122 396.23,-1122 396.23,-1106.17 			"/>
			<polygon class="st1" points="461.51,-1092.36 461.51,-1122 444.7,-1122 444.7,-1082.76 			"/>
			<polygon class="st1" points="437.2,-1082.76 437.2,-1122 420.39,-1122 420.39,-1092.36 			"/>
			<polygon class="st1" points="469.01,-1096.65 513.38,-1122 479.76,-1122 469.01,-1115.86 			"/>
			<path class="st1" d="M315.8-896.21c0-1.33,0.72-2.55,1.88-3.22l48.7-27.68c1.16-0.66,2.59-0.66,3.75,0.01l46.59,26.77
				c6.72-3.84,12.68-7.25,16.76-9.58l-65.4-37.37l-69.19,39.54v79.07l16.78,9.59L315.8-896.21z"/>
			<path class="st1" d="M340.01-882.09c0-1.33,0.72-2.55,1.88-3.22l24.32-13.89c1.16-0.66,2.59-0.66,3.75,0l22.39,12.8
				c5.47-3.13,11.28-6.45,16.87-9.64l-40.99-23.55l-44.94,25.54l-0.13,79.27l16.85,9.63L340.01-882.09z"/>
			<polygon class="st1" points="298.9,-749.78 311.78,-757.14 298.9,-764.51 			"/>
			<polygon class="st1" points="298.9,-773.09 319.29,-761.43 336.1,-771.04 298.89,-792.3 			"/>
			<polygon class="st1" points="298.89,-800.88 343.6,-775.32 360.41,-784.93 298.89,-820.08 			"/>
			<path class="st1" d="M364.25-868.2c0-1.36,0.75-2.59,1.92-3.24c0.55-0.31,8.36-4.78,18.68-10.68l-16.76-9.58l-20.57,11.75
				l0.01,79.08l16.72,9.55V-868.2z"/>
			<path class="st1" d="M315.8-729.68c0-1.33,0.72-2.55,1.88-3.22l48.7-27.68c1.16-0.66,2.59-0.66,3.75,0.01l46.59,26.77
				c6.61-3.78,12.48-7.13,16.54-9.45l-65.39-37.37L298.9-741.2v79.07l16.78,9.59L315.8-729.68z"/>
			<path class="st1" d="M340.02-715.56c0-1.33,0.72-2.55,1.88-3.22l24.32-13.89c1.16-0.66,2.59-0.66,3.75,0l22.39,12.8
				c5.47-3.13,11.28-6.45,16.87-9.64l-40.99-23.55l-44.94,25.54l-0.13,79.27l16.85,9.63L340.02-715.56z"/>
			<polygon class="st1" points="298.9,-582.95 312.05,-590.46 298.9,-597.97 			"/>
			<polygon class="st1" points="298.9,-606.55 319.56,-594.75 336.37,-604.35 298.9,-625.76 			"/>
			<polygon class="st1" points="298.9,-634.34 343.87,-608.64 360.68,-618.24 298.9,-653.55 			"/>
			<path class="st1" d="M364.26-701.66c0-1.36,0.75-2.59,1.92-3.24c0.55-0.31,8.36-4.78,18.68-10.68l-16.76-9.58l-20.57,11.75
				l0.01,79.08l16.72,9.56V-701.66z"/>
			<polygon class="st1" points="510.22,-415.31 510.22,-445.08 493.25,-435.38 493.25,-405.62 			"/>
			<path class="st1" d="M315.8-562.84c0-1.33,0.72-2.55,1.88-3.22l48.7-27.68c1.16-0.66,2.59-0.66,3.75,0.01l46.59,26.77
				c6.72-3.84,12.68-7.25,16.76-9.58l-65.4-37.37l-69.19,39.54v79.07l16.78,9.59L315.8-562.84z"/>
			<polygon class="st1" points="469.1,-421.46 469.1,-391.82 485.75,-401.33 485.75,-430.93 			"/>
			<path class="st1" d="M437.19-371.44c0-0.26,0.03-0.51,0.09-0.76v-35.4l-16.81-9.6l0,21.29c0,0.01,0,0.01,0,0.02
				c0,0,0,0.01,0,0.01l0,53.42l16.71,9.55V-371.44z"/>
			<path class="st1" d="M340.02-548.72c0-1.33,0.72-2.55,1.88-3.22l24.32-13.89c1.16-0.66,2.59-0.66,3.75,0l22.39,12.8
				c5.47-3.13,11.28-6.45,16.87-9.64l-40.99-23.55l-44.94,25.54l-0.13,79.27l16.85,9.63L340.02-548.72z"/>
			<polygon class="st1" points="461.59,-417.19 444.78,-407.63 444.78,-377.93 461.59,-387.53 			"/>
			<polygon class="st1" points="412.97,-365.95 298.9,-431.14 298.91,-411.93 412.97,-346.75 			"/>
			<polygon class="st1" points="412.97,-374.53 412.97,-393.74 298.9,-458.93 298.9,-439.72 			"/>
			<path class="st1" d="M412.96-402.32l0-19.16l-46.83-26.76c-0.15-0.09-0.3-0.19-0.44-0.29l-66.8-38.17l0,19.21L412.96-402.32z"/>
			<path class="st1" d="M364.26-534.83c0-1.36,0.75-2.59,1.92-3.24c0.55-0.31,8.36-4.78,18.68-10.68l-16.76-9.58l-20.57,11.75
				l0.01,79.08l16.72,9.56V-534.83z"/>
			<path class="st1" d="M315.8-274.41c0-1.33,0.72-2.55,1.88-3.22l48.7-27.68c1.16-0.66,2.59-0.66,3.75,0.01l46.59,26.77
				c6.72-3.84,12.68-7.25,16.76-9.58l-65.4-37.37l-69.19,39.54v79.07l16.78,9.59L315.8-274.41z"/>
			<path class="st1" d="M340.02-260.29c0-1.33,0.72-2.55,1.88-3.22l24.32-13.89c1.16-0.66,2.59-0.66,3.75,0l22.39,12.8
				c5.47-3.13,11.28-6.45,16.87-9.64l-40.99-23.55l-44.94,25.54l-0.13,79.27l16.85,9.63L340.02-260.29z"/>
			<polygon class="st1" points="298.9,-127.49 312.22,-135.1 298.9,-142.71 			"/>
			<polygon class="st1" points="298.9,-151.29 319.73,-139.39 336.54,-148.99 298.9,-170.5 			"/>
			<polygon class="st1" points="298.9,-179.08 344.04,-153.28 360.85,-162.88 298.9,-198.28 			"/>
			<path class="st1" d="M364.26-246.4c0-1.36,0.75-2.59,1.92-3.24c0.55-0.31,8.36-4.78,18.68-10.68l-16.76-9.58l-20.57,11.75
				l0.01,79.08l16.72,9.56V-246.4z"/>
			<path class="st1" d="M368.09-158.44L298.9-118.9v79.07l16.78,9.59l0.12-77.14c0-1.33,0.72-2.55,1.88-3.22l48.7-27.68
				c1.16-0.66,2.59-0.66,3.75,0.01l46.59,26.77c6.72-3.84,12.68-7.25,16.76-9.58L368.09-158.44z"/>
			<path class="st1" d="M323.31-105.22l-0.13,79.27l16.85,9.63l-0.01-76.93c0-1.33,0.72-2.55,1.88-3.22l24.32-13.89
				c1.16-0.66,2.59-0.66,3.75,0l22.39,12.8c5.47-3.13,11.28-6.44,16.87-9.64l-40.99-23.55L323.31-105.22z"/>
			<polygon class="st1" points="298.9,0 304.96,0 298.9,-3.47 			"/>
			<polygon class="st1" points="298.9,-12.05 319.98,0 353.59,0 298.9,-31.25 			"/>
			<path class="st1" d="M347.53-91.12l0.01,79.08l16.72,9.55v-76.88c0-1.36,0.75-2.59,1.92-3.24c0.55-0.31,8.36-4.78,18.68-10.68
				l-16.76-9.58L347.53-91.12z"/>
			<polygon class="st1" points="566.3,-113.6 582.78,-123.02 582.78,-198.11 566.18,-188.63 			"/>
			<path class="st1" d="M388.73-65.25c0-0.01,0-0.01,0-0.02c0-0.22,0.03-0.43,0.07-0.64c0.01-0.06,0.02-0.11,0.03-0.17
				c0.05-0.21,0.11-0.41,0.19-0.6c0.01-0.03,0.03-0.05,0.04-0.08c0.08-0.17,0.17-0.33,0.27-0.49c0.03-0.05,0.06-0.09,0.09-0.14
				c0.12-0.17,0.25-0.33,0.4-0.48c0.01-0.01,0.02-0.02,0.03-0.03c0.14-0.14,0.3-0.26,0.46-0.38c0.05-0.03,0.1-0.07,0.15-0.1
				c0.04-0.03,0.09-0.06,0.13-0.09l70.95-40.83l-0.03-19.52l-17.63,10.08c-0.29,0.36-0.64,0.67-1.06,0.91l-71.06,40.61V0h16.97
				V-65.25z"/>
			<polygon class="st1" points="396.23,-58.83 396.23,0 412.88,0 412.88,-49.36 			"/>
			<polygon class="st1" points="558.8,-109.32 558.68,-184.34 541.96,-174.79 541.96,-99.69 			"/>
			<path class="st1" d="M461.51-23.79c0-0.01,0-0.01,0-0.02l0-25.62l-22.44-12.82c-1.16-0.66-1.88-1.89-1.88-3.22
				c0-1.33,0.72-2.55,1.88-3.22l46.75-26.72v-47.3l-16.82,9.61l0.04,25.94c0,1.33-0.71,2.55-1.87,3.22l-67.2,38.67l18.24,10.37
				c0.2,0.09,0.39,0.2,0.56,0.32l24.04,13.67c1.17,0.66,1.88,1.89,1.88,3.22V0h16.75h0.06l0-23.78
				C461.51-23.78,461.51-23.79,461.51-23.79z"/>
			<polygon class="st1" points="420.39,-45.09 420.39,0 437.19,0 437.2,0 437.2,-35.54 			"/>
			<path class="st1" d="M491.46-90.04l-43,24.57l16.81,9.6l44.88-25.64v-75.09l-16.81,9.6v53.74
				C493.33-91.93,492.62-90.71,491.46-90.04z"/>
			<polygon class="st1" points="582.78,-39.66 582.78,-58.87 479.76,0 485.83,0 493.33,0 499.89,0 513.38,0 			"/>
			<polygon class="st1" points="469.02,-21.65 469.01,-2.44 582.78,-67.45 582.78,-86.66 			"/>
			<polygon class="st1" points="469.02,-49.43 469.02,-30.22 582.78,-95.24 582.78,-114.44 			"/>
			<polygon class="st1" points="534.45,-95.4 534.46,-170.5 517.65,-160.89 517.65,-85.8 			"/>
			<path class="st1" d="M513.89-1030.63l-69.2,39.54v81.22c0,1.33-0.72,2.55-1.88,3.22l-71.06,40.61v79.07l16.97,9.69v-76.8
				c0-0.01,0-0.01,0-0.02c0-0.22,0.03-0.43,0.07-0.64c0.01-0.06,0.02-0.11,0.03-0.17c0.05-0.21,0.11-0.41,0.19-0.6
				c0.01-0.03,0.03-0.05,0.04-0.08c0.08-0.17,0.17-0.33,0.27-0.49c0.03-0.05,0.06-0.09,0.09-0.14c0.12-0.17,0.25-0.33,0.4-0.48
				c0.01-0.01,0.02-0.02,0.03-0.03c0.14-0.14,0.3-0.26,0.46-0.38c0.05-0.03,0.1-0.07,0.15-0.1c0.04-0.03,0.09-0.06,0.13-0.09
				l70.95-40.83l-0.12-81.22c0-1.33,0.71-2.55,1.87-3.22l48.56-27.9c1.16-0.67,2.59-0.67,3.75-0.01l48.7,27.68
				c1.16,0.66,1.88,1.89,1.88,3.22l0.13,77.14l16.48-9.42v-79.41L513.89-1030.63z"/>
			<polygon class="st1" points="412.88,-838.19 396.23,-847.66 396.23,-773 412.88,-763.48 			"/>
			<path class="st1" d="M558.67-977.42l-44.94-25.54l-44.82,25.75l0.12,81.22c0,1.33-0.71,2.55-1.87,3.22l-67.2,38.67l18.24,10.37
				c0.2,0.09,0.39,0.2,0.56,0.32l22,12.51l16.81-9.61l-18.52-10.58c-1.16-0.66-1.88-1.89-1.88-3.22c0-1.33,0.72-2.55,1.88-3.22
				l46.75-26.72v-81.22c0-0.13,0.01-0.26,0.03-0.38c0-0.03,0-0.06,0.01-0.09c0.03-0.21,0.08-0.42,0.14-0.62
				c0.02-0.05,0.04-0.11,0.05-0.16c0.15-0.42,0.38-0.8,0.67-1.14c0.04-0.04,0.07-0.08,0.11-0.12c0.14-0.15,0.3-0.3,0.47-0.43
				c0.02-0.02,0.05-0.03,0.07-0.05c0.11-0.08,0.21-0.15,0.33-0.22L512-982.56c1.16-0.66,2.59-0.66,3.75,0l24.32,13.89
				c1.16,0.66,1.88,1.89,1.88,3.22l-0.01,76.93l16.85-9.63L558.67-977.42z"/>
			<polygon class="st1" points="437.19,-824.37 420.38,-833.92 420.38,-759.19 437.19,-749.59 			"/>
			<path class="st1" d="M510.13-949.42l-16.81-9.6v76.93c0,1.33-0.72,2.55-1.88,3.22l-43,24.57l16.64,9.51l45.04-25.73V-949.42z"/>
			<polygon class="st1" points="582.78,-833.31 582.78,-847.7 570.19,-840.51 			"/>
			<polygon class="st1" points="562.68,-844.8 582.78,-856.28 582.78,-875.49 545.88,-854.4 			"/>
			<polygon class="st1" points="538.37,-858.69 582.78,-884.07 582.78,-903.28 521.57,-868.29 			"/>
			<path class="st1" d="M534.45-963.31l-20.57-11.75l-16.8,9.6l18.69,10.68c1.16,0.66,1.88,1.89,1.88,3.22v76.93l16.8-9.6
				L534.45-963.31z"/>
			<path class="st1" d="M513.89-864.1l-69.2,39.54v81.22c0,1.33-0.72,2.55-1.88,3.22l-71.06,40.61v79.07l16.97,9.69v-76.8
				c0-0.01,0-0.01,0-0.02c0-0.22,0.03-0.43,0.07-0.64c0.01-0.06,0.02-0.11,0.03-0.17c0.05-0.21,0.11-0.41,0.19-0.6
				c0.01-0.03,0.03-0.05,0.04-0.08c0.08-0.17,0.17-0.33,0.27-0.49c0.03-0.05,0.06-0.09,0.09-0.14c0.12-0.17,0.25-0.34,0.4-0.48
				c0.01-0.01,0.02-0.02,0.03-0.03c0.14-0.14,0.3-0.26,0.46-0.38c0.05-0.03,0.1-0.07,0.15-0.1c0.04-0.03,0.09-0.06,0.13-0.09
				l70.95-40.83l-0.12-81.22c0-1.33,0.71-2.55,1.87-3.22l48.56-27.9c1.16-0.67,2.59-0.67,3.75-0.01l48.7,27.68
				c1.16,0.66,1.88,1.89,1.88,3.22l0.13,77.14l16.48-9.42v-79.42L513.89-864.1z"/>
			<polygon class="st1" points="412.88,-671.66 396.23,-681.13 396.23,-606.46 412.88,-596.95 			"/>
			<path class="st1" d="M558.68-810.88l-44.94-25.54l-44.82,25.75l0.12,81.22c0,1.33-0.71,2.55-1.87,3.22l-67.2,38.67l18.24,10.37
				c0.2,0.09,0.39,0.2,0.56,0.32l22.26,12.66l16.81-9.61l-18.78-10.73c-1.16-0.66-1.88-1.89-1.88-3.22s0.72-2.55,1.88-3.22
				l46.75-26.72v-81.22c0-0.13,0.01-0.26,0.03-0.39c0-0.03,0-0.06,0.01-0.09c0.03-0.21,0.08-0.42,0.14-0.62
				c0.02-0.05,0.04-0.1,0.05-0.16c0.15-0.42,0.38-0.8,0.67-1.14c0.04-0.04,0.07-0.08,0.11-0.12c0.14-0.15,0.3-0.3,0.47-0.43
				c0.02-0.02,0.05-0.03,0.07-0.05c0.11-0.08,0.21-0.15,0.33-0.22l24.31-13.89c1.16-0.66,2.59-0.66,3.75,0l24.32,13.89
				c1.16,0.66,1.88,1.89,1.88,3.22l-0.01,76.93l16.85-9.63L558.68-810.88z"/>
			<polygon class="st1" points="437.19,-657.84 420.39,-667.39 420.39,-592.66 437.19,-583.06 			"/>
			<path class="st1" d="M510.14-782.88l-16.81-9.6v76.93c0,1.33-0.72,2.55-1.88,3.22l-43,24.57l16.81,9.6l44.88-25.64V-782.88z"/>
			<polygon class="st1" points="582.78,-666.48 582.78,-681.17 569.93,-673.82 			"/>
			<polygon class="st1" points="562.42,-678.11 582.78,-689.74 582.78,-708.95 545.62,-687.72 			"/>
			<polygon class="st1" points="538.11,-692.01 582.78,-717.53 582.78,-736.74 521.3,-701.61 			"/>
			<path class="st1" d="M534.46-796.77l-20.57-11.75l-16.8,9.6l18.69,10.68c1.16,0.66,1.88,1.89,1.88,3.22v76.93l16.8-9.6
				L534.46-796.77z"/>
			<path class="st1" d="M513.89-697.26l-69.2,39.54v81.22c0,1.33-0.72,2.55-1.88,3.22l-71.06,40.61v79.07l16.97,9.69v-76.8
				c0-0.01,0-0.01,0-0.02c0-0.22,0.03-0.43,0.07-0.64c0.01-0.06,0.02-0.11,0.03-0.17c0.05-0.21,0.11-0.41,0.19-0.6
				c0.01-0.03,0.03-0.05,0.04-0.08c0.08-0.17,0.17-0.33,0.27-0.49c0.03-0.05,0.06-0.09,0.09-0.14c0.12-0.17,0.25-0.34,0.4-0.48
				c0.01-0.01,0.02-0.02,0.03-0.03c0.14-0.14,0.3-0.26,0.46-0.38c0.05-0.03,0.1-0.07,0.15-0.1c0.04-0.03,0.09-0.06,0.13-0.09
				l70.95-40.83l-0.12-81.22c0-1.33,0.71-2.55,1.87-3.22l48.56-27.9c1.16-0.67,2.59-0.67,3.75-0.01l48.7,27.68
				c1.16,0.66,1.88,1.89,1.88,3.22l0.13,77.14l16.48-9.42v-79.42L513.89-697.26z"/>
			<polygon class="st1" points="412.88,-504.82 396.23,-514.29 396.23,-439.63 412.88,-430.11 			"/>
			<path class="st1" d="M558.68-644.05l-44.94-25.54l-44.82,25.75l0.12,81.22c0,1.33-0.71,2.55-1.87,3.22l-67.2,38.67l18.24,10.37
				c0.2,0.09,0.38,0.19,0.56,0.32l24.04,13.67c1.17,0.66,1.88,1.89,1.88,3.22v76.93l16.8-9.6l0.01-53.42c0,0,0-0.01,0-0.01
				c0-0.01,0-0.01,0-0.02l0-25.62l-22.44-12.82c-1.16-0.66-1.88-1.89-1.88-3.22c0-1.33,0.72-2.55,1.88-3.22l46.75-26.72v-81.22
				c0-0.13,0.01-0.26,0.03-0.39c0-0.03,0-0.06,0.01-0.09c0.03-0.21,0.08-0.42,0.14-0.62c0.02-0.05,0.04-0.11,0.05-0.16
				c0.15-0.42,0.38-0.8,0.67-1.14c0.04-0.04,0.07-0.08,0.11-0.12c0.14-0.15,0.3-0.3,0.47-0.43c0.02-0.02,0.05-0.03,0.07-0.05
				c0.11-0.08,0.21-0.15,0.33-0.22l24.31-13.89c1.16-0.66,2.59-0.66,3.75,0l24.32,13.89c1.16,0.66,1.88,1.89,1.88,3.22l-0.01,76.93
				l16.85-9.63L558.68-644.05z"/>
			<polygon class="st1" points="437.2,-491 420.39,-500.55 420.39,-425.82 437.2,-416.22 			"/>
			<path class="st1" d="M510.14-616.05l-16.81-9.6v76.93c0,1.33-0.72,2.55-1.88,3.22l-43,24.57l16.81,9.6l44.88-25.64V-616.05z"/>
			<polygon class="st1" points="469.01,-449.32 469.01,-430.11 582.78,-495.12 582.78,-514.33 			"/>
			<polygon class="st1" points="469.02,-477.11 469.02,-457.9 582.78,-522.91 582.78,-542.12 			"/>
			<polygon class="st1" points="469.02,-504.89 469.02,-485.69 582.78,-550.7 582.78,-569.9 			"/>
			<path class="st1" d="M534.46-629.94l-20.57-11.75l-16.8,9.6l18.69,10.68c1.16,0.66,1.88,1.89,1.88,3.22v76.93l16.8-9.6
				L534.46-629.94z"/>
			<path class="st1" d="M513.89-408.83l-69.2,39.54v81.22c0,1.33-0.72,2.55-1.88,3.22l-71.06,40.61v79.07l16.97,9.69v-76.8
				c0-0.01,0-0.01,0-0.02c0-0.22,0.03-0.43,0.07-0.64c0.01-0.06,0.02-0.11,0.03-0.17c0.05-0.21,0.11-0.41,0.19-0.6
				c0.01-0.03,0.03-0.05,0.04-0.08c0.08-0.17,0.17-0.33,0.27-0.49c0.03-0.05,0.06-0.09,0.09-0.14c0.12-0.17,0.25-0.34,0.4-0.48
				c0.01-0.01,0.02-0.02,0.03-0.03c0.14-0.14,0.3-0.26,0.46-0.38c0.05-0.03,0.1-0.07,0.15-0.1c0.04-0.03,0.09-0.06,0.13-0.09
				l70.95-40.83l-0.12-81.22c0-1.33,0.71-2.55,1.87-3.22l48.56-27.9c1.16-0.67,2.59-0.67,3.75-0.01l48.7,27.68
				c1.16,0.66,1.88,1.89,1.88,3.22l0.13,77.14l16.48-9.42v-79.42L513.89-408.83z"/>
			<polygon class="st1" points="412.88,-216.39 396.23,-225.86 396.23,-151.2 412.88,-141.68 			"/>
			<path class="st1" d="M558.68-355.62l-44.94-25.54l-44.82,25.75l0.12,81.22c0,1.33-0.71,2.55-1.87,3.22l-67.2,38.67l18.24,10.37
				c0.2,0.09,0.38,0.19,0.56,0.32l24.04,13.67c1.17,0.66,1.88,1.89,1.88,3.22v76.93l16.8-9.6l0.01-53.42c0,0,0-0.01,0-0.01
				c0-0.01,0-0.01,0-0.02l0-25.63l-22.44-12.82c-1.16-0.66-1.88-1.89-1.88-3.22c0-1.33,0.72-2.55,1.88-3.22l46.75-26.72v-81.22
				c0-0.13,0.01-0.26,0.03-0.39c0-0.03,0-0.06,0.01-0.09c0.03-0.21,0.08-0.42,0.14-0.62c0.02-0.05,0.04-0.1,0.05-0.16
				c0.15-0.42,0.38-0.8,0.67-1.14c0.04-0.04,0.07-0.08,0.11-0.12c0.14-0.15,0.3-0.3,0.47-0.43c0.02-0.02,0.05-0.03,0.07-0.05
				c0.11-0.08,0.21-0.15,0.33-0.22l24.31-13.89c1.16-0.66,2.59-0.66,3.75,0l24.32,13.89c1.16,0.66,1.88,1.89,1.88,3.22l-0.01,76.93
				l16.85-9.63L558.68-355.62z"/>
			<polygon class="st1" points="437.2,-202.57 420.39,-212.13 420.39,-137.39 437.2,-127.79 			"/>
			<path class="st1" d="M510.14-327.62l-16.81-9.6v76.93c0,1.33-0.72,2.55-1.88,3.22l-43,24.57l16.81,9.6l44.88-25.64V-327.62z"/>
			<polygon class="st1" points="469.01,-160.89 469.01,-141.68 582.78,-206.69 582.78,-225.9 			"/>
			<polygon class="st1" points="469.02,-188.68 469.02,-169.47 582.78,-234.48 582.78,-253.69 			"/>
			<polygon class="st1" points="469.02,-216.47 469.02,-197.26 582.78,-262.27 582.78,-281.47 			"/>
			<path class="st1" d="M534.46-341.51l-20.57-11.75l-16.8,9.6l18.69,10.68c1.16,0.66,1.88,1.89,1.88,3.22v76.93l16.8-9.6
				L534.46-341.51z"/>
		</g>
		<g>
			<polygon class="st1" points="7.51,-403.35 7.51,-328.67 24.29,-319.09 24.41,-393.69 			"/>
			<polygon class="st1" points="31.91,-389.41 31.79,-314.8 37.4,-311.59 48.64,-318.02 48.63,-379.85 			"/>
			<polygon class="st1" points="7.51,-300.89 13.09,-297.7 29.89,-307.3 7.51,-320.09 			"/>
			<polygon class="st1" points="56.14,-375.56 56.14,-322.3 72.86,-331.86 72.86,-366 			"/>
			<polygon class="st1" points="274.91,-402.45 291.39,-411.86 291.39,-486.54 274.79,-477.06 			"/>
			<polygon class="st1" points="80.37,-361.71 80.37,-331.95 97.34,-322.26 97.34,-352.02 			"/>
			<polygon class="st1" points="104.84,-347.67 104.84,-317.97 121.49,-308.46 121.49,-338.21 			"/>
			<polygon class="st1" points="261.8,-394.96 267.41,-398.16 267.29,-472.77 250.57,-463.22 250.57,-401.38 			"/>
			<polygon class="st1" points="145.8,-324.33 129,-333.93 129,-304.17 145.8,-294.57 			"/>
			<polygon class="st1" points="286.11,-381.07 291.39,-384.08 291.39,-403.28 269.31,-390.67 			"/>
			<polygon class="st1" points="243.06,-405.67 243.06,-458.93 226.34,-449.37 226.34,-415.22 			"/>
			<polygon class="st1" points="291.39,-31.08 274.79,-21.6 274.83,0 291.39,0 			"/>
			<polygon class="st1" points="250.57,-7.76 250.57,0 267.32,0 267.29,-17.31 			"/>
			<polygon class="st1" points="237,0 243.06,0 243.06,-3.47 			"/>
			<polygon class="st1" points="7.51,-1069.89 7.51,-995.39 24.29,-985.8 24.41,-1060.23 			"/>
			<polygon class="st1" points="31.91,-1055.95 31.79,-981.51 48.64,-971.88 48.63,-1046.39 			"/>
			<polygon class="st1" points="7.51,-916.32 20.56,-923.78 7.51,-931.23 			"/>
			<polygon class="st1" points="7.51,-939.81 28.07,-928.07 44.87,-937.67 7.51,-959.02 			"/>
			<polygon class="st1" points="7.51,-967.6 52.38,-941.96 69.19,-951.56 7.51,-986.81 			"/>
			<polygon class="st1" points="56.14,-1042.1 56.14,-967.59 72.86,-958.04 72.86,-1032.54 			"/>
			<polygon class="st1" points="291.39,-1078.58 291.39,-1122 274.83,-1122 274.91,-1069.16 			"/>
			<polygon class="st1" points="80.37,-1028.25 80.37,-953.75 97.34,-944.05 97.34,-1018.56 			"/>
			<polygon class="st1" points="104.84,-1014.27 104.84,-939.76 121.49,-930.25 121.49,-1004.75 			"/>
			<polygon class="st1" points="267.41,-1064.87 267.32,-1122 250.57,-1122 250.56,-1055.25 			"/>
			<polygon class="st1" points="129,-1000.47 129,-925.96 145.79,-916.37 145.79,-990.87 			"/>
			<polygon class="st1" points="291.39,-999.84 291.39,-1014.43 278.63,-1007.13 			"/>
			<polygon class="st1" points="271.13,-1011.42 291.39,-1023 291.39,-1042.21 254.32,-1021.03 			"/>
			<polygon class="st1" points="246.81,-1025.32 291.39,-1050.79 291.39,-1070 230.01,-1034.92 			"/>
			<polygon class="st1" points="226.34,-1041.4 243.06,-1050.96 243.06,-1122 237,-1122 226.34,-1115.91 			"/>
			<polygon class="st1" points="218.83,-1037.12 218.83,-1111.62 201.86,-1101.92 201.86,-1027.42 			"/>
			<polygon class="st1" points="177.71,-1088 177.71,-1013.62 194.36,-1023.13 194.36,-1097.47 			"/>
			<path class="st1" d="M129.08-1062.45c0,0.01,0,0.01,0,0.02c0,0,0,0.01,0,0.01l0.01,53.42l16.8,9.6v-74.74l-16.81-9.6
				L129.08-1062.45z"/>
			<polygon class="st1" points="170.2,-1083.73 153.39,-1074.17 153.39,-999.73 170.2,-1009.33 			"/>
			<polygon class="st1" points="7.51,-1097.68 7.51,-1078.47 121.58,-1013.29 121.58,-1032.49 			"/>
			<polygon class="st1" points="121.58,-1041.07 121.57,-1060.28 13.57,-1122 7.51,-1122 7.51,-1106.26 			"/>
			<path class="st1" d="M121.57-1088.03l-46.83-26.76c-0.15-0.09-0.3-0.19-0.44-0.29L62.2-1122H28.59l92.99,53.14L121.57-1088.03z"
				/>
			<polygon class="st1" points="97.34,-1110.45 97.34,-1122 80.37,-1122 80.37,-1120.15 			"/>
			<polygon class="st1" points="121.49,-1096.65 121.49,-1122 104.84,-1122 104.84,-1106.17 			"/>
			<polygon class="st1" points="170.11,-1092.36 170.12,-1122 153.31,-1122 153.31,-1082.76 			"/>
			<polygon class="st1" points="145.81,-1082.76 145.81,-1122 129,-1122 129,-1092.36 			"/>
			<polygon class="st1" points="177.62,-1096.65 221.99,-1122 188.37,-1122 177.62,-1115.86 			"/>
			<path class="st1" d="M24.41-896.21c0-1.33,0.72-2.55,1.88-3.22l48.7-27.68c1.16-0.66,2.59-0.66,3.75,0.01l46.59,26.77
				c6.72-3.84,12.68-7.25,16.76-9.58l-65.4-37.37L7.5-907.73v79.07l16.78,9.59L24.41-896.21z"/>
			<path class="st1" d="M48.62-882.09c0-1.33,0.72-2.55,1.88-3.22l24.32-13.89c1.16-0.66,2.59-0.66,3.75,0l22.39,12.8
				c5.47-3.13,11.28-6.45,16.87-9.64l-40.99-23.55l-44.94,25.54l-0.13,79.27l16.85,9.63L48.62-882.09z"/>
			<polygon class="st1" points="7.51,-749.78 20.39,-757.14 7.51,-764.51 			"/>
			<polygon class="st1" points="7.5,-773.09 27.9,-761.43 44.71,-771.04 7.5,-792.3 			"/>
			<polygon class="st1" points="7.5,-800.88 52.21,-775.32 69.02,-784.93 7.5,-820.08 			"/>
			<path class="st1" d="M72.86-868.2c0-1.36,0.75-2.59,1.92-3.24c0.55-0.31,8.36-4.78,18.68-10.68l-16.76-9.58l-20.57,11.75
				l0.01,79.08l16.72,9.55V-868.2z"/>
			<path class="st1" d="M24.41-729.68c0-1.33,0.72-2.55,1.88-3.22l48.7-27.68c1.16-0.66,2.59-0.66,3.75,0.01l46.59,26.77
				c6.61-3.78,12.48-7.13,16.54-9.45l-65.39-37.37L7.51-741.2v79.07l16.78,9.59L24.41-729.68z"/>
			<path class="st1" d="M48.63-715.56c0-1.33,0.72-2.55,1.88-3.22l24.32-13.89c1.16-0.66,2.59-0.66,3.75,0l22.39,12.8
				c5.47-3.13,11.28-6.45,16.87-9.64l-40.99-23.55l-44.94,25.54l-0.13,79.27l16.85,9.63L48.63-715.56z"/>
			<polygon class="st1" points="7.51,-582.95 20.66,-590.46 7.51,-597.97 			"/>
			<polygon class="st1" points="7.51,-606.55 28.17,-594.75 44.97,-604.35 7.51,-625.76 			"/>
			<polygon class="st1" points="7.51,-634.34 52.48,-608.64 69.29,-618.24 7.51,-653.55 			"/>
			<path class="st1" d="M72.86-701.66c0-1.36,0.75-2.59,1.92-3.24c0.55-0.31,8.36-4.78,18.68-10.68l-16.76-9.58l-20.57,11.75
				l0.01,79.08l16.72,9.56V-701.66z"/>
			<polygon class="st1" points="218.83,-415.31 218.83,-445.08 201.86,-435.38 201.86,-405.62 			"/>
			<path class="st1" d="M24.41-562.84c0-1.33,0.72-2.55,1.88-3.22l48.7-27.68c1.16-0.66,2.59-0.66,3.75,0.01l46.59,26.77
				c6.72-3.84,12.68-7.25,16.76-9.58L76.7-613.9L7.51-574.36v79.07l16.78,9.59L24.41-562.84z"/>
			<polygon class="st1" points="177.71,-421.46 177.71,-391.82 194.36,-401.33 194.36,-430.93 			"/>
			<path class="st1" d="M145.8-371.44c0-0.26,0.03-0.51,0.09-0.76v-35.4l-16.81-9.6l0,21.29c0,0.01,0,0.01,0,0.02c0,0,0,0.01,0,0.01
				l0.01,53.42l16.71,9.55V-371.44z"/>
			<path class="st1" d="M48.63-548.72c0-1.33,0.72-2.55,1.88-3.22l24.32-13.89c1.16-0.66,2.59-0.66,3.75,0l22.39,12.8
				c5.47-3.13,11.28-6.45,16.87-9.64l-40.99-23.55l-44.94,25.54l-0.13,79.27l16.85,9.63L48.63-548.72z"/>
			<polygon class="st1" points="170.2,-417.19 153.39,-407.63 153.39,-377.93 170.2,-387.53 			"/>
			<polygon class="st1" points="121.58,-365.95 7.51,-431.14 7.51,-411.93 121.58,-346.75 			"/>
			<polygon class="st1" points="121.58,-374.53 121.57,-393.74 7.51,-458.93 7.51,-439.72 			"/>
			<path class="st1" d="M121.57-402.32l0-19.16l-46.83-26.76c-0.15-0.09-0.3-0.19-0.44-0.29l-66.8-38.17l0,19.21L121.57-402.32z"/>
			<path class="st1" d="M72.86-534.83c0-1.36,0.75-2.59,1.92-3.24c0.55-0.31,8.36-4.78,18.68-10.68l-16.76-9.58l-20.57,11.75
				l0.01,79.08l16.72,9.56V-534.83z"/>
			<path class="st1" d="M24.41-274.41c0-1.33,0.72-2.55,1.88-3.22l48.7-27.68c1.16-0.66,2.59-0.66,3.75,0.01l46.59,26.77
				c6.72-3.84,12.68-7.25,16.76-9.58l-65.4-37.37L7.51-285.93v79.07l16.78,9.59L24.41-274.41z"/>
			<path class="st1" d="M48.63-260.29c0-1.33,0.72-2.55,1.88-3.22l24.32-13.89c1.16-0.66,2.59-0.66,3.75,0l22.39,12.8
				c5.47-3.13,11.28-6.45,16.87-9.64L76.85-297.8l-44.94,25.54l-0.13,79.27l16.85,9.63L48.63-260.29z"/>
			<polygon class="st1" points="7.51,-127.49 20.83,-135.1 7.51,-142.71 			"/>
			<polygon class="st1" points="7.51,-151.29 28.34,-139.39 45.15,-148.99 7.51,-170.5 			"/>
			<polygon class="st1" points="7.51,-179.08 52.65,-153.28 69.46,-162.88 7.51,-198.28 			"/>
			<path class="st1" d="M72.86-246.4c0-1.36,0.75-2.59,1.92-3.24c0.55-0.31,8.36-4.78,18.68-10.68L76.7-269.9l-20.57,11.75
				l0.01,79.08l16.72,9.56V-246.4z"/>
			<path class="st1" d="M76.7-158.44L7.51-118.9v79.07l16.78,9.59l0.13-77.14c0-1.33,0.72-2.55,1.88-3.22l48.7-27.68
				c1.16-0.66,2.59-0.66,3.75,0.01l46.59,26.77c6.72-3.84,12.68-7.25,16.76-9.58L76.7-158.44z"/>
			<path class="st1" d="M31.92-105.22l-0.13,79.27l16.85,9.63l-0.01-76.93c0-1.33,0.72-2.55,1.88-3.22l24.32-13.89
				c1.16-0.66,2.59-0.66,3.75,0l22.39,12.8c5.47-3.13,11.28-6.44,16.87-9.64l-40.99-23.55L31.92-105.22z"/>
			<polygon class="st1" points="7.51,0 13.57,0 7.51,-3.47 			"/>
			<polygon class="st1" points="7.51,-12.05 28.59,0 62.2,0 7.51,-31.25 			"/>
			<path class="st1" d="M56.14-91.12l0.01,79.08l16.72,9.55v-76.88c0-1.36,0.75-2.59,1.92-3.24c0.55-0.31,8.36-4.78,18.68-10.68
				l-16.76-9.58L56.14-91.12z"/>
			<polygon class="st1" points="274.91,-113.6 291.39,-123.02 291.39,-198.11 274.79,-188.63 			"/>
			<path class="st1" d="M97.34-65.25c0-0.01,0-0.01,0-0.02c0-0.22,0.03-0.43,0.07-0.64c0.01-0.06,0.02-0.11,0.03-0.17
				c0.05-0.21,0.11-0.41,0.19-0.6c0.01-0.03,0.03-0.05,0.04-0.08c0.08-0.17,0.17-0.33,0.27-0.49c0.03-0.05,0.06-0.09,0.09-0.14
				c0.12-0.17,0.25-0.33,0.4-0.48c0.01-0.01,0.02-0.02,0.03-0.03c0.14-0.14,0.3-0.26,0.46-0.38c0.05-0.03,0.1-0.07,0.15-0.1
				c0.04-0.03,0.09-0.06,0.13-0.09l70.95-40.83l-0.03-19.52l-17.63,10.08c-0.29,0.36-0.64,0.67-1.06,0.91L80.37-77.22V0h16.97
				V-65.25z"/>
			<polygon class="st1" points="104.84,-58.83 104.84,0 121.49,0 121.49,-49.36 			"/>
			<polygon class="st1" points="267.41,-109.32 267.29,-184.34 250.57,-174.79 250.56,-99.69 			"/>
			<path class="st1" d="M170.12-23.79c0-0.01,0-0.01,0-0.02l0-25.62l-22.44-12.82c-1.16-0.66-1.88-1.89-1.88-3.22
				c0-1.33,0.72-2.55,1.88-3.22l46.75-26.72v-47.3l-16.82,9.61l0.04,25.94c0,1.33-0.71,2.55-1.87,3.22l-67.2,38.67l18.24,10.37
				c0.2,0.09,0.39,0.2,0.56,0.32l24.04,13.67c1.17,0.66,1.88,1.89,1.88,3.22V0h16.75h0.06l0-23.78
				C170.12-23.78,170.12-23.79,170.12-23.79z"/>
			<polygon class="st1" points="129,-45.09 129,0 145.8,0 145.81,0 145.81,-35.54 			"/>
			<path class="st1" d="M200.07-90.04l-43,24.57l16.81,9.6l44.88-25.64v-75.09l-16.81,9.6v53.74
				C201.94-91.93,201.23-90.71,200.07-90.04z"/>
			<polygon class="st1" points="291.39,-39.66 291.39,-58.87 188.37,0 194.44,0 201.94,0 208.5,0 221.99,0 			"/>
			<polygon class="st1" points="177.63,-21.65 177.62,-2.44 291.39,-67.45 291.39,-86.66 			"/>
			<polygon class="st1" points="177.63,-49.43 177.63,-30.22 291.39,-95.24 291.39,-114.44 			"/>
			<polygon class="st1" points="243.06,-95.4 243.06,-170.5 226.26,-160.89 226.26,-85.8 			"/>
			<path class="st1" d="M222.5-1030.63l-69.2,39.54v81.22c0,1.33-0.72,2.55-1.88,3.22l-71.06,40.61v79.07l16.97,9.69v-76.8
				c0-0.01,0-0.01,0-0.02c0-0.22,0.03-0.43,0.07-0.64c0.01-0.06,0.02-0.11,0.03-0.17c0.05-0.21,0.11-0.41,0.19-0.6
				c0.01-0.03,0.03-0.05,0.04-0.08c0.08-0.17,0.17-0.33,0.27-0.49c0.03-0.05,0.06-0.09,0.09-0.14c0.12-0.17,0.25-0.33,0.4-0.48
				c0.01-0.01,0.02-0.02,0.03-0.03c0.14-0.14,0.3-0.26,0.46-0.38c0.05-0.03,0.1-0.07,0.15-0.1c0.04-0.03,0.09-0.06,0.13-0.09
				l70.95-40.83l-0.12-81.22c0-1.33,0.71-2.55,1.87-3.22l48.56-27.9c1.16-0.67,2.59-0.67,3.75-0.01l48.7,27.68
				c1.16,0.66,1.88,1.89,1.88,3.22l0.13,77.14l16.48-9.42v-79.41L222.5-1030.63z"/>
			<polygon class="st1" points="121.49,-838.19 104.84,-847.66 104.84,-773 121.49,-763.48 			"/>
			<path class="st1" d="M267.28-977.42l-44.94-25.54l-44.82,25.75l0.12,81.22c0,1.33-0.71,2.55-1.87,3.22l-67.2,38.67l18.24,10.37
				c0.2,0.09,0.39,0.2,0.56,0.32l22,12.51l16.81-9.61l-18.52-10.58c-1.16-0.66-1.88-1.89-1.88-3.22c0-1.33,0.72-2.55,1.88-3.22
				l46.75-26.72v-81.22c0-0.13,0.01-0.26,0.03-0.38c0-0.03,0-0.06,0.01-0.09c0.03-0.21,0.08-0.42,0.14-0.62
				c0.02-0.05,0.04-0.11,0.05-0.16c0.15-0.42,0.38-0.8,0.67-1.14c0.04-0.04,0.07-0.08,0.11-0.12c0.14-0.15,0.3-0.3,0.47-0.43
				c0.02-0.02,0.05-0.03,0.07-0.05c0.11-0.08,0.21-0.15,0.33-0.22l24.31-13.89c1.16-0.66,2.59-0.66,3.75,0l24.32,13.89
				c1.16,0.66,1.88,1.89,1.88,3.22l-0.01,76.93l16.85-9.63L267.28-977.42z"/>
			<polygon class="st1" points="145.8,-824.37 128.99,-833.92 128.99,-759.19 145.8,-749.59 			"/>
			<path class="st1" d="M218.74-949.42l-16.81-9.6v76.93c0,1.33-0.72,2.55-1.88,3.22l-43,24.57l16.64,9.51l45.04-25.73V-949.42z"/>
			<polygon class="st1" points="291.39,-833.31 291.39,-847.7 278.8,-840.51 			"/>
			<polygon class="st1" points="271.29,-844.8 291.39,-856.28 291.39,-875.49 254.49,-854.4 			"/>
			<polygon class="st1" points="246.98,-858.69 291.39,-884.07 291.39,-903.28 230.17,-868.29 			"/>
			<path class="st1" d="M243.06-963.31l-20.57-11.75l-16.8,9.6l18.69,10.68c1.16,0.66,1.88,1.89,1.88,3.22v76.93l16.8-9.6
				L243.06-963.31z"/>
			<path class="st1" d="M222.5-864.1l-69.2,39.54v81.22c0,1.33-0.72,2.55-1.88,3.22l-71.06,40.61v79.07l16.97,9.69v-76.8
				c0-0.01,0-0.01,0-0.02c0-0.22,0.03-0.43,0.07-0.64c0.01-0.06,0.02-0.11,0.03-0.17c0.05-0.21,0.11-0.41,0.19-0.6
				c0.01-0.03,0.03-0.05,0.04-0.08c0.08-0.17,0.17-0.33,0.27-0.49c0.03-0.05,0.06-0.09,0.09-0.14c0.12-0.17,0.25-0.34,0.4-0.48
				c0.01-0.01,0.02-0.02,0.03-0.03c0.14-0.14,0.3-0.26,0.46-0.38c0.05-0.03,0.1-0.07,0.15-0.1c0.04-0.03,0.09-0.06,0.13-0.09
				l70.95-40.83l-0.12-81.22c0-1.33,0.71-2.55,1.87-3.22l48.56-27.9c1.16-0.67,2.59-0.67,3.75-0.01l48.7,27.68
				c1.16,0.66,1.88,1.89,1.88,3.22l0.13,77.14l16.48-9.42v-79.42L222.5-864.1z"/>
			<polygon class="st1" points="121.49,-671.66 104.84,-681.13 104.84,-606.46 121.49,-596.95 			"/>
			<path class="st1" d="M267.29-810.88l-44.94-25.54l-44.82,25.75l0.12,81.22c0,1.33-0.71,2.55-1.87,3.22l-67.2,38.67l18.24,10.37
				c0.2,0.09,0.39,0.2,0.56,0.32l22.26,12.66l16.81-9.61l-18.78-10.73c-1.16-0.66-1.88-1.89-1.88-3.22s0.72-2.55,1.88-3.22
				l46.75-26.72v-81.22c0-0.13,0.01-0.26,0.03-0.39c0-0.03,0-0.06,0.01-0.09c0.03-0.21,0.08-0.42,0.14-0.62
				c0.02-0.05,0.04-0.1,0.05-0.16c0.15-0.42,0.38-0.8,0.67-1.14c0.04-0.04,0.07-0.08,0.11-0.12c0.14-0.15,0.3-0.3,0.47-0.43
				c0.02-0.02,0.05-0.03,0.07-0.05c0.11-0.08,0.21-0.15,0.33-0.22l24.31-13.89c1.16-0.66,2.59-0.66,3.75,0l24.32,13.89
				c1.16,0.66,1.88,1.89,1.88,3.22l-0.01,76.93l16.85-9.63L267.29-810.88z"/>
			<polygon class="st1" points="145.8,-657.84 129,-667.39 129,-592.66 145.8,-583.06 			"/>
			<path class="st1" d="M218.75-782.88l-16.81-9.6v76.93c0,1.33-0.72,2.55-1.88,3.22l-43,24.57l16.81,9.6l44.88-25.64V-782.88z"/>
			<polygon class="st1" points="291.39,-666.48 291.39,-681.17 278.54,-673.82 			"/>
			<polygon class="st1" points="271.03,-678.11 291.39,-689.74 291.39,-708.95 254.23,-687.72 			"/>
			<polygon class="st1" points="246.72,-692.01 291.39,-717.53 291.39,-736.74 229.91,-701.61 			"/>
			<path class="st1" d="M243.06-796.77l-20.57-11.75l-16.8,9.6l18.69,10.68c1.16,0.66,1.88,1.89,1.88,3.22v76.93l16.8-9.6
				L243.06-796.77z"/>
			<path class="st1" d="M222.5-697.26l-69.2,39.54v81.22c0,1.33-0.72,2.55-1.88,3.22l-71.06,40.61v79.07l16.97,9.69v-76.8
				c0-0.01,0-0.01,0-0.02c0-0.22,0.03-0.43,0.07-0.64c0.01-0.06,0.02-0.11,0.03-0.17c0.05-0.21,0.11-0.41,0.19-0.6
				c0.01-0.03,0.03-0.05,0.04-0.08c0.08-0.17,0.17-0.33,0.27-0.49c0.03-0.05,0.06-0.09,0.09-0.14c0.12-0.17,0.25-0.34,0.4-0.48
				c0.01-0.01,0.02-0.02,0.03-0.03c0.14-0.14,0.3-0.26,0.46-0.38c0.05-0.03,0.1-0.07,0.15-0.1c0.04-0.03,0.09-0.06,0.13-0.09
				l70.95-40.83l-0.12-81.22c0-1.33,0.71-2.55,1.87-3.22l48.56-27.9c1.16-0.67,2.59-0.67,3.75-0.01l48.7,27.68
				c1.16,0.66,1.88,1.89,1.88,3.22l0.13,77.14l16.48-9.42v-79.42L222.5-697.26z"/>
			<polygon class="st1" points="121.49,-504.82 104.84,-514.29 104.84,-439.63 121.49,-430.11 			"/>
			<path class="st1" d="M267.29-644.05l-44.94-25.54l-44.82,25.75l0.12,81.22c0,1.33-0.71,2.55-1.87,3.22l-67.2,38.67l18.24,10.37
				c0.2,0.09,0.38,0.19,0.56,0.32l24.04,13.67c1.17,0.66,1.88,1.89,1.88,3.22v76.93l16.8-9.6l0-53.42c0,0,0-0.01,0-0.01
				c0-0.01,0-0.01,0-0.02l0-25.62l-22.44-12.82c-1.16-0.66-1.88-1.89-1.88-3.22c0-1.33,0.72-2.55,1.88-3.22l46.75-26.72v-81.22
				c0-0.13,0.01-0.26,0.03-0.39c0-0.03,0-0.06,0.01-0.09c0.03-0.21,0.08-0.42,0.14-0.62c0.02-0.05,0.04-0.11,0.05-0.16
				c0.15-0.42,0.38-0.8,0.67-1.14c0.04-0.04,0.07-0.08,0.11-0.12c0.14-0.15,0.3-0.3,0.47-0.43c0.02-0.02,0.05-0.03,0.07-0.05
				c0.11-0.08,0.21-0.15,0.33-0.22l24.31-13.89c1.16-0.66,2.59-0.66,3.75,0l24.32,13.89c1.16,0.66,1.88,1.89,1.88,3.22l-0.01,76.93
				l16.85-9.63L267.29-644.05z"/>
			<polygon class="st1" points="145.81,-491 129,-500.55 129,-425.82 145.81,-416.22 			"/>
			<path class="st1" d="M218.75-616.05l-16.81-9.6v76.93c0,1.33-0.72,2.55-1.88,3.22l-43,24.57l16.81,9.6l44.88-25.64V-616.05z"/>
			<polygon class="st1" points="177.62,-449.32 177.62,-430.11 291.39,-495.12 291.39,-514.33 			"/>
			<polygon class="st1" points="177.63,-477.11 177.62,-457.9 291.39,-522.91 291.39,-542.12 			"/>
			<polygon class="st1" points="177.63,-504.89 177.63,-485.69 291.39,-550.7 291.39,-569.9 			"/>
			<path class="st1" d="M243.06-629.94l-20.57-11.75l-16.8,9.6l18.69,10.68c1.16,0.66,1.88,1.89,1.88,3.22v76.93l16.8-9.6
				L243.06-629.94z"/>
			<path class="st1" d="M222.5-408.83l-69.2,39.54v81.22c0,1.33-0.72,2.55-1.88,3.22l-71.06,40.61v79.07l16.97,9.69v-76.8
				c0-0.01,0-0.01,0-0.02c0-0.22,0.03-0.43,0.07-0.64c0.01-0.06,0.02-0.11,0.03-0.17c0.05-0.21,0.11-0.41,0.19-0.6
				c0.01-0.03,0.03-0.05,0.04-0.08c0.08-0.17,0.17-0.33,0.27-0.49c0.03-0.05,0.06-0.09,0.09-0.14c0.12-0.17,0.25-0.34,0.4-0.48
				c0.01-0.01,0.02-0.02,0.03-0.03c0.14-0.14,0.3-0.26,0.46-0.38c0.05-0.03,0.1-0.07,0.15-0.1c0.04-0.03,0.09-0.06,0.13-0.09
				l70.95-40.83l-0.12-81.22c0-1.33,0.71-2.55,1.87-3.22l48.56-27.9c1.16-0.67,2.59-0.67,3.75-0.01l48.7,27.68
				c1.16,0.66,1.88,1.89,1.88,3.22l0.13,77.14l16.48-9.42v-79.42L222.5-408.83z"/>
			<polygon class="st1" points="121.49,-216.39 104.84,-225.86 104.84,-151.2 121.49,-141.68 			"/>
			<path class="st1" d="M267.29-355.62l-44.94-25.54l-44.82,25.75l0.12,81.22c0,1.33-0.71,2.55-1.87,3.22l-67.2,38.67l18.24,10.37
				c0.2,0.09,0.38,0.19,0.56,0.32l24.04,13.67c1.17,0.66,1.88,1.89,1.88,3.22v76.93l16.8-9.6l0-53.42c0,0,0-0.01,0-0.01
				c0-0.01,0-0.01,0-0.02l0-25.63l-22.44-12.82c-1.16-0.66-1.88-1.89-1.88-3.22c0-1.33,0.72-2.55,1.88-3.22l46.75-26.72v-81.22
				c0-0.13,0.01-0.26,0.03-0.39c0-0.03,0-0.06,0.01-0.09c0.03-0.21,0.08-0.42,0.14-0.62c0.02-0.05,0.04-0.1,0.05-0.16
				c0.15-0.42,0.38-0.8,0.67-1.14c0.04-0.04,0.07-0.08,0.11-0.12c0.14-0.15,0.3-0.3,0.47-0.43c0.02-0.02,0.05-0.03,0.07-0.05
				c0.11-0.08,0.21-0.15,0.33-0.22l24.31-13.89c1.16-0.66,2.59-0.66,3.75,0l24.32,13.89c1.16,0.66,1.88,1.89,1.88,3.22l-0.01,76.93
				l16.85-9.63L267.29-355.62z"/>
			<polygon class="st1" points="145.81,-202.57 129,-212.13 129,-137.39 145.81,-127.79 			"/>
			<path class="st1" d="M218.75-327.62l-16.81-9.6v76.93c0,1.33-0.72,2.55-1.88,3.22l-43,24.57l16.81,9.6l44.88-25.64V-327.62z"/>
			<polygon class="st1" points="177.62,-160.89 177.62,-141.68 291.39,-206.69 291.39,-225.9 			"/>
			<polygon class="st1" points="177.63,-188.68 177.62,-169.47 291.39,-234.48 291.39,-253.69 			"/>
			<polygon class="st1" points="177.63,-216.47 177.63,-197.26 291.39,-262.27 291.39,-281.47 			"/>
			<path class="st1" d="M243.06-341.51l-20.57-11.75l-16.8,9.6l18.69,10.68c1.16,0.66,1.88,1.89,1.88,3.22v76.93l16.8-9.6
				L243.06-341.51z"/>
		</g>
	</g>
</pattern>
<g id="Bg">
	<rect y="0" class="st2" width="1200" height="800"/>
</g>
<g id="Object">
	<polygon class="st3" points="0,800 1200,800 1200,0 0,0 	"/>
	<linearGradient id="SVGID_1_" gradientUnits="userSpaceOnUse" x1="1452.3452" y1="-403.7461" x2="-284.5739" y2="1234.1372">
		<stop  offset="0" style="stop-color:#EEDEBC"/>
		<stop  offset="0.059" style="stop-color:#DDC6A3"/>
		<stop  offset="0.1398" style="stop-color:#C9A885"/>
		<stop  offset="0.2581" style="stop-color:#9A7A5F"/>
		<stop  offset="0.3602" style="stop-color:#C9A885"/>
		<stop  offset="0.4892" style="stop-color:#EEDEBC"/>
		<stop  offset="0.5415" style="stop-color:#DDC6A3"/>
		<stop  offset="0.6129" style="stop-color:#C9A885"/>
		<stop  offset="0.7204" style="stop-color:#9A7A5F"/>
		<stop  offset="0.8387" style="stop-color:#C9A885"/>
		<stop  offset="1" style="stop-color:#EEDEBC"/>
	</linearGradient>
	<rect y="0" class="st4" width="1200" height="800"/>
</g>
</svg>
